<svg width="28" height="28" viewBox="0 0 28 28" fill="none" xmlns="http://www.w3.org/2000/svg">
<rect width="28" height="28" rx="14" fill="#2A2A2A"/>
<g clip-path="url(#clip0_419_4577)">
<path d="M21.3665 9.53036L14.1019 6.0233C14.0701 6.00796 14.0353 6 14 6C13.9647 6 13.9299 6.00796 13.8981 6.0233L6.63345 9.53036C6.59375 9.54952 6.56027 9.57949 6.53684 9.61683C6.51341 9.65416 6.50098 9.69734 6.50098 9.74142V18.2586C6.50098 18.3027 6.51341 18.3458 6.53684 18.3832C6.56027 18.4205 6.59375 18.4505 6.63345 18.4696L13.8981 21.9767C13.9299 21.992 13.9647 22 14 22C14.0353 22 14.0701 21.992 14.1019 21.9767L21.3665 18.4696C21.4062 18.4505 21.4397 18.4205 21.4631 18.3832C21.4865 18.3458 21.499 18.3027 21.499 18.2586V9.74145C21.499 9.69737 21.4865 9.65418 21.4631 9.61685C21.4397 9.57951 21.4062 9.54953 21.3665 9.53036ZM14 6.49464L20.7255 9.74142L18.7759 10.6826C18.7636 10.673 18.7503 10.6646 18.7362 10.6576L12.0564 7.43292L14 6.49464ZM11.5271 7.69792L18.2428 10.94L16.8674 11.604L10.1544 8.36326L11.5271 7.69792ZM18.3999 11.3846V13.8392L17.1152 14.4594V12.0049L18.3999 11.3846ZM21.0302 18.1115L14.2344 21.3922V13.3956L15.8554 12.613C15.8831 12.5996 15.9079 12.5809 15.9284 12.558C15.9489 12.535 15.9646 12.5082 15.9748 12.4791C15.9849 12.4501 15.9892 12.4193 15.9875 12.3886C15.9857 12.3578 15.9779 12.3278 15.9645 12.3C15.9512 12.2723 15.9324 12.2475 15.9095 12.227C15.8865 12.2065 15.8597 12.1908 15.8307 12.1806C15.8016 12.1705 15.7708 12.1662 15.7401 12.168C15.7094 12.1697 15.6793 12.1775 15.6516 12.1909L14 12.9882L13.3501 12.6745C13.3224 12.6611 13.2923 12.6533 13.2616 12.6515C13.2308 12.6498 13.2001 12.6541 13.171 12.6642C13.1419 12.6744 13.1152 12.6901 13.0922 12.7106C13.0692 12.7311 13.0505 12.7559 13.0371 12.7836C13.0237 12.8114 13.016 12.8414 13.0142 12.8722C13.0124 12.9029 13.0168 12.9337 13.0269 12.9627C13.037 12.9918 13.0528 13.0186 13.0733 13.0415C13.0938 13.0645 13.1186 13.0832 13.1463 13.0966L13.7656 13.3956V21.3922L6.96973 18.1115V10.1148L12.1447 12.6131C12.1764 12.6285 12.2112 12.6365 12.2464 12.6365C12.2996 12.6365 12.3511 12.6186 12.3927 12.5855C12.4342 12.5524 12.4633 12.5062 12.4752 12.4544C12.4871 12.4027 12.481 12.3484 12.458 12.3005C12.4349 12.2527 12.3964 12.214 12.3485 12.191L7.27445 9.74142L9.60273 8.61742L16.6432 12.0163C16.6442 12.0177 16.6454 12.019 16.6464 12.0204V14.8329C16.6464 14.8725 16.6565 14.9115 16.6757 14.9463C16.6949 14.981 16.7226 15.0102 16.7562 15.0313C16.7898 15.0524 16.8282 15.0646 16.8678 15.0668C16.9074 15.069 16.947 15.0612 16.9827 15.0439L18.7362 14.1974C18.7759 14.1782 18.8094 14.1483 18.8328 14.1109C18.8563 14.0736 18.8687 14.0304 18.8687 13.9863V11.1584L21.0302 10.1149V18.1115Z" fill="white"/>
<path d="M8.90433 17.2029L7.83824 16.6882C7.78226 16.6612 7.71784 16.6575 7.65914 16.678C7.60045 16.6985 7.55229 16.7414 7.52527 16.7974C7.49824 16.8534 7.49456 16.9178 7.51503 16.9765C7.5355 17.0352 7.57845 17.0833 7.63442 17.1103L8.70052 17.625C8.73222 17.6404 8.767 17.6484 8.80224 17.6484C8.84635 17.6484 8.88957 17.636 8.92693 17.6125C8.9643 17.5891 8.99429 17.5556 9.01345 17.5158C9.02684 17.4881 9.03464 17.4581 9.0364 17.4273C9.03816 17.3966 9.03385 17.3658 9.02372 17.3368C9.01359 17.3077 8.99783 17.2809 8.97734 17.2579C8.95686 17.235 8.93205 17.2163 8.90433 17.2029ZM9.88549 16.5642L7.8397 15.5766C7.78386 15.5506 7.72002 15.5476 7.662 15.5683C7.60397 15.589 7.55643 15.6317 7.52965 15.6872C7.50287 15.7427 7.49901 15.8065 7.51889 15.8648C7.53878 15.9231 7.58082 15.9712 7.63592 15.9988L9.6817 16.9864C9.71341 17.0017 9.74819 17.0097 9.78342 17.0098C9.83655 17.0098 9.88812 16.9919 9.9297 16.9588C9.97127 16.9257 10.0004 16.8795 10.0122 16.8277C10.0241 16.7759 10.018 16.7217 9.99499 16.6738C9.97196 16.6259 9.93335 16.5873 9.88549 16.5642Z" fill="white"/>
</g>
<defs>
<clipPath id="clip0_419_4577">
<rect width="16" height="16" fill="white" transform="translate(6 6)"/>
</clipPath>
</defs>
</svg>
