<svg width="24" height="24" viewBox="0 0 24 24" fill="none" xmlns="http://www.w3.org/2000/svg">
<rect width="24" height="24" rx="12" fill="#2A2A2A"/>
<g clip-path="url(#clip0_419_4568)">
<path d="M17.3845 14.8051H16.3691V13.5128C16.3691 13.2359 16.1538 13.0205 15.8768 13.0205H14.6153C14.3384 13.0205 14.123 13.2359 14.123 13.5128V14.7744H13.1691V13.5128C13.1691 13.2359 12.9538 13.0205 12.6768 13.0205H11.4153C11.1384 13.0205 10.923 13.2359 10.923 13.5128V14.7744H9.96914V13.5128C9.96914 13.2359 9.75376 13.0205 9.47683 13.0205H8.21529C7.93837 13.0205 7.72299 13.2359 7.72299 13.5128V14.7744H6.61529C5.38453 14.7744 4.36914 15.7897 4.36914 17.0205C4.36914 18.2513 5.38453 19.2667 6.61529 19.2667H17.3538C18.5845 19.2667 19.5999 18.2513 19.5999 17.0205C19.5999 15.7897 18.6153 14.8051 17.3845 14.8051ZM14.5538 13.5128C14.5538 13.482 14.5845 13.482 14.5845 13.482H15.8461C15.8768 13.482 15.8768 13.5128 15.8768 13.5128V14.7744H14.523V13.5128H14.5538ZM11.323 13.5128C11.323 13.482 11.3538 13.482 11.3538 13.482H12.6153C12.6461 13.482 12.6461 13.5128 12.6461 13.5128V14.7744H11.2922V13.5128H11.323ZM8.12299 13.5128C8.12299 13.482 8.15376 13.482 8.15376 13.482H9.41529C9.44606 13.482 9.44606 13.5128 9.44606 13.5128V14.7744H8.09222V13.5128H8.12299ZM17.3845 18.8359H6.61529C5.63068 18.8359 4.83068 18.0359 4.83068 17.0513C4.83068 16.0667 5.63068 15.2667 6.61529 15.2667H17.3845C18.3691 15.2667 19.1691 16.0667 19.1691 17.0513C19.1691 18.0359 18.3384 18.8359 17.3845 18.8359Z" fill="white"/>
<path d="M17.1075 16.6826C16.9229 16.6826 16.7383 16.8365 16.7383 17.0518C16.7383 17.2365 16.8921 17.4211 17.1075 17.4211C17.2921 17.4211 17.4767 17.2672 17.4767 17.0518C17.4767 16.8365 17.3229 16.6826 17.1075 16.6826ZM17.1075 17.1442C17.046 17.1442 17.0152 17.1134 17.0152 17.0518C17.0152 16.9903 17.046 16.9595 17.1075 16.9595C17.169 16.9595 17.1998 17.0211 17.1998 17.0518C17.2306 17.0826 17.169 17.1442 17.1075 17.1442Z" fill="white"/>
<path d="M17.1079 15.9434C16.4925 15.9434 16.0002 16.4357 16.0002 17.0511C16.0002 17.6664 16.4925 18.128 17.1079 18.128C17.7232 18.128 18.1848 17.6357 18.1848 17.0511C18.2155 16.4357 17.7232 15.9434 17.1079 15.9434ZM17.1079 17.6664C16.7694 17.6664 16.4617 17.3895 16.4617 17.0511C16.4617 16.7126 16.7386 16.4049 17.1079 16.4049C17.4463 16.4049 17.7232 16.6818 17.7232 17.0511C17.754 17.3895 17.4463 17.6664 17.1079 17.6664ZM13.6925 16.6818C13.5079 16.6818 13.3232 16.8357 13.3232 17.0511C13.3232 17.2357 13.4771 17.4203 13.6925 17.4203C13.8771 17.4203 14.0617 17.2664 14.0617 17.0511C14.0617 16.8357 13.9079 16.6818 13.6925 16.6818ZM13.6925 17.1434C13.6309 17.1434 13.6002 17.1126 13.6002 17.0511C13.6002 16.9895 13.6309 16.9587 13.6925 16.9587C13.754 16.9587 13.7848 16.9895 13.7848 17.0511C13.8155 17.0818 13.754 17.1434 13.6925 17.1434Z" fill="white"/>
<path d="M13.7231 15.9434C13.1077 15.9434 12.6154 16.4357 12.6154 17.0511C12.6154 17.6664 13.1077 18.128 13.7231 18.128C14.3385 18.128 14.8 17.6357 14.8 17.0511C14.8 16.4357 14.3077 15.9434 13.7231 15.9434ZM13.7231 17.6664C13.3846 17.6664 13.0769 17.3895 13.0769 17.0511C13.0769 16.7126 13.3539 16.4049 13.7231 16.4049C14.0616 16.4049 14.3385 16.6818 14.3385 17.0511C14.3385 17.3895 14.0616 17.6664 13.7231 17.6664ZM10.3077 16.6818C10.1231 16.6818 9.93848 16.8357 9.93848 17.0511C9.93848 17.2357 10.0923 17.4203 10.3077 17.4203C10.4923 17.4203 10.6769 17.2664 10.6769 17.0511C10.6462 16.8357 10.4923 16.6818 10.3077 16.6818ZM10.3077 17.1434C10.2462 17.1434 10.2154 17.1126 10.2154 17.0511C10.2154 16.9895 10.2462 16.9587 10.3077 16.9587C10.3692 16.9587 10.4 16.9895 10.4 17.0511C10.4 17.0818 10.3385 17.1434 10.3077 17.1434Z" fill="white"/>
<path d="M10.3081 15.9434C9.69267 15.9434 9.20036 16.4357 9.20036 17.0511C9.20036 17.6664 9.69267 18.128 10.3081 18.128C10.9234 18.128 11.385 17.6357 11.385 17.0511C11.385 16.4357 10.8927 15.9434 10.3081 15.9434ZM10.3081 17.6664C9.96959 17.6664 9.6619 17.3895 9.6619 17.0511C9.6619 16.7126 9.93882 16.4049 10.3081 16.4049C10.6465 16.4049 10.9234 16.6818 10.9234 17.0511C10.9234 17.3895 10.6465 17.6664 10.3081 17.6664ZM6.89267 16.6818C6.70805 16.6818 6.52344 16.8357 6.52344 17.0511C6.52344 17.2357 6.67728 17.4203 6.89267 17.4203C7.07728 17.4203 7.2619 17.2664 7.2619 17.0511C7.23113 16.8357 7.07728 16.6818 6.89267 16.6818ZM6.89267 17.1434C6.83113 17.1434 6.80036 17.1126 6.80036 17.0511C6.80036 16.9895 6.83113 16.9587 6.89267 16.9587C6.95421 16.9587 6.98498 16.9895 6.98498 17.0511C6.98498 17.0818 6.95421 17.1434 6.89267 17.1434Z" fill="white"/>
<path d="M6.89187 15.9438C6.27649 15.9438 5.78418 16.4361 5.78418 17.0515C5.78418 17.6669 6.27649 18.1284 6.89187 18.1284C7.50726 18.1284 7.9688 17.6361 7.9688 17.0515C7.9688 16.4361 7.47649 15.9438 6.89187 15.9438ZM6.89187 17.6669C6.55341 17.6669 6.24572 17.39 6.24572 17.0515C6.24572 16.7131 6.52264 16.4054 6.89187 16.4054C7.23033 16.4054 7.50726 16.6823 7.50726 17.0515C7.50726 17.39 7.23033 17.6669 6.89187 17.6669ZM8.21495 5.97459H10.1226L9.63033 7.75921C9.07649 7.88229 8.61495 8.40536 8.64572 9.02075C8.67649 9.6669 9.2611 10.19 9.93803 10.19H12.6765C12.9534 10.19 13.1688 9.97459 13.1688 9.69767V9.57459H14.1842C14.2765 9.72844 14.3996 9.82075 14.5534 9.91306V11.2977C14.5534 11.6361 14.8303 11.9131 15.138 11.9131C15.4457 11.9131 15.7534 11.6361 15.7534 11.2977V9.91306C16.0919 9.69767 16.3073 9.35921 16.3073 8.92844C16.3073 8.28229 15.7842 7.78998 15.1688 7.78998C14.7688 7.78998 14.3996 8.00536 14.2149 8.31306H13.1996V8.18998C13.1996 7.91306 12.9842 7.69767 12.7073 7.69767H11.9073L12.3996 5.94383H14.9226C15.3534 5.94383 15.7226 5.57459 15.7226 5.14383V4.28229C15.7226 4.15921 15.6303 4.03613 15.4765 4.03613H7.63033C7.50726 4.03613 7.38418 4.12844 7.38418 4.28229V5.17459C7.41495 5.60536 7.78418 5.97459 8.21495 5.97459ZM15.2919 11.2977C15.2919 11.3592 15.2303 11.4515 15.138 11.4515C15.0765 11.4515 15.0149 11.39 15.0149 11.2977V10.0669H15.2919V11.2977ZM15.138 8.25152C15.5073 8.25152 15.8149 8.55921 15.8149 8.92844C15.8149 9.29767 15.5073 9.60536 15.138 9.60536C14.7688 9.60536 14.4611 9.29767 14.4611 8.92844C14.4611 8.55921 14.7688 8.25152 15.138 8.25152ZM13.9996 8.77459C13.9996 8.83613 13.9688 8.8669 13.9688 8.92844C13.9688 8.98998 13.9688 9.02075 13.9996 9.08229H13.1688V8.77459H13.9996ZM12.7073 8.18998V9.63613C12.7073 9.63613 12.7073 9.6669 12.6765 9.6669H9.93803C9.50726 9.6669 9.13803 9.32844 9.10726 8.92844C9.07649 8.4669 9.44572 8.12844 9.87649 8.12844H11.5996L12.7073 8.18998ZM11.4149 7.69767H10.0919L10.5842 5.94383H11.9073L11.4149 7.69767ZM7.87649 4.52844H15.2611V5.17459C15.2611 5.35921 15.1073 5.51306 14.9226 5.51306H8.21495C8.03033 5.51306 7.87649 5.35921 7.87649 5.17459V4.52844Z" fill="white"/>
</g>
<defs>
<clipPath id="clip0_419_4568">
<rect width="16" height="16" fill="white" transform="translate(4 3.66699)"/>
</clipPath>
</defs>
</svg>
