<svg width="28" height="28" viewBox="0 0 28 28" fill="none" xmlns="http://www.w3.org/2000/svg">
<rect width="28" height="28" rx="14" fill="#2A2A2A"/>
<g clip-path="url(#clip0_419_4586)">
<path d="M19.2328 16.2208C19.2325 15.9451 19.1229 15.6808 18.9279 15.4858C18.733 15.2909 18.4686 15.1812 18.1929 15.1809H15.0461C15.4807 14.1276 15.4822 12.9454 15.0505 11.891C15.0467 11.8817 15.0424 11.8727 15.0375 11.864C14.9488 11.7043 14.8172 11.5726 14.6576 11.4836C14.4981 11.3946 14.3169 11.3519 14.1344 11.3603C13.9519 11.3686 13.7753 11.4278 13.6246 11.531C13.4739 11.6343 13.355 11.7776 13.2813 11.9447C13.2696 11.9711 13.2626 11.9993 13.2606 12.0281L13.1863 13.0827C13.0751 13.6888 12.7481 14.234 12.2658 14.6175C12.0726 14.6853 11.7189 14.9252 10.7962 15.8032V15.7769C10.7961 15.6387 10.7411 15.5062 10.6434 15.4084C10.5456 15.3107 10.4131 15.2557 10.2748 15.2556H7.65032C7.51209 15.2557 7.37957 15.3107 7.28183 15.4084C7.18409 15.5062 7.12911 15.6387 7.12897 15.7769V21.0144C7.12907 21.1527 7.18403 21.2853 7.28177 21.383C7.37952 21.4808 7.51206 21.5358 7.65032 21.5359H10.2747C10.4129 21.5358 10.5455 21.4808 10.6432 21.3831C10.741 21.2854 10.7959 21.1528 10.7961 21.0146V20.9916C11.5178 21.1508 11.8944 21.34 12.3338 21.7481C12.5065 21.9124 12.7366 22.0028 12.9749 22H17.0429C17.2403 22.0001 17.4337 21.9439 17.6003 21.8381C17.767 21.7323 17.9001 21.5813 17.984 21.4026C18.068 21.224 18.0993 21.0251 18.0743 20.8293C18.0494 20.6334 17.9692 20.4488 17.8431 20.2969C18.1678 20.1016 18.3988 19.752 18.3988 19.3805C18.399 19.1494 18.3219 18.9249 18.1797 18.7427C18.5103 18.5468 18.7476 18.1853 18.7476 17.8007C18.7479 17.5839 18.68 17.3725 18.5535 17.1964C18.7527 17.1225 18.9246 16.9894 19.046 16.815C19.1674 16.6406 19.2326 16.4333 19.2328 16.2208ZM10.2961 21.0145C10.2959 21.0201 10.2935 21.0254 10.2896 21.0294C10.2856 21.0334 10.2803 21.0357 10.2747 21.0359H7.65032C7.64472 21.0357 7.63941 21.0334 7.63545 21.0294C7.63149 21.0254 7.62918 21.0201 7.62897 21.0145V15.777C7.62918 15.7714 7.6315 15.7661 7.63546 15.7622C7.63941 15.7582 7.64472 15.7559 7.65032 15.7557H10.2747C10.2803 15.7559 10.2856 15.7582 10.2896 15.7622C10.2935 15.7661 10.2959 15.7714 10.2961 15.777V21.0145ZM18.1929 16.7606H17.324C17.2577 16.7606 17.1941 16.787 17.1473 16.8338C17.1004 16.8807 17.074 16.9443 17.074 17.0106C17.074 17.0769 17.1004 17.1405 17.1473 17.1874C17.1941 17.2343 17.2577 17.2606 17.324 17.2606H17.7077C17.8508 17.2608 17.9881 17.3178 18.0893 17.419C18.1905 17.5202 18.2474 17.6574 18.2476 17.8005C18.2476 18.0818 17.9697 18.3679 17.6844 18.3926C17.5794 18.3579 17.4695 18.3403 17.3589 18.3404C17.2926 18.3404 17.229 18.3667 17.1821 18.4136C17.1352 18.4605 17.1089 18.5241 17.1089 18.5904C17.1089 18.6567 17.1352 18.7203 17.1821 18.7672C17.229 18.8141 17.2926 18.8404 17.3589 18.8404C17.4221 18.8403 17.4848 18.8514 17.5442 18.8732C17.5508 18.8761 17.5575 18.8787 17.5643 18.881C17.6632 18.9218 17.7477 18.9911 17.8073 19.0799C17.8668 19.1688 17.8986 19.2733 17.8987 19.3803C17.8987 19.6559 17.6097 19.9365 17.3155 19.9564C17.2266 19.9323 17.135 19.9201 17.0429 19.9202C16.9766 19.9202 16.913 19.9465 16.8661 19.9934C16.8192 20.0403 16.7929 20.1039 16.7929 20.1702C16.7929 20.2365 16.8192 20.3 16.8661 20.3469C16.913 20.3938 16.9766 20.4202 17.0429 20.4202C17.0952 20.4201 17.1473 20.4277 17.1975 20.4427C17.2034 20.4448 17.2094 20.4468 17.2155 20.4485C17.3369 20.4894 17.4398 20.5721 17.5058 20.6818C17.5718 20.7916 17.5966 20.9212 17.5759 21.0476C17.5551 21.1739 17.4901 21.2888 17.3925 21.3717C17.2949 21.4546 17.171 21.5 17.0429 21.5H12.9749C12.9195 21.5012 12.8643 21.4914 12.8126 21.4711C12.761 21.4509 12.7138 21.4205 12.674 21.3818C12.1431 20.8885 11.679 20.664 10.7961 20.4803V16.4973L10.8404 16.4542C12.0675 15.2625 12.3681 15.1078 12.4319 15.089C12.4689 15.0814 12.5038 15.0655 12.5338 15.0425C13.1381 14.5796 13.5473 13.9074 13.6809 13.1581C13.6824 13.1493 13.6835 13.1405 13.6842 13.1316L13.7561 12.1114C13.7967 12.0366 13.8564 11.9739 13.9291 11.9297C14.0018 11.8854 14.085 11.8613 14.1701 11.8596C14.2552 11.858 14.3392 11.8789 14.4136 11.9203C14.488 11.9617 14.5501 12.022 14.5936 12.0952C14.8023 12.6113 14.896 13.1668 14.8681 13.7228C14.8402 14.2789 14.6914 14.8221 14.432 15.3148C14.412 15.3529 14.4022 15.3955 14.4035 15.4385C14.4048 15.4815 14.4171 15.5235 14.4394 15.5603C14.4617 15.5972 14.4931 15.6276 14.5305 15.6488C14.568 15.6699 14.6103 15.681 14.6534 15.681H18.1929C18.3354 15.6821 18.4717 15.7395 18.5721 15.8406C18.6724 15.9417 18.7287 16.0784 18.7287 16.2209C18.7287 16.3634 18.6724 16.5001 18.5721 16.6012C18.4717 16.7024 18.3354 16.7597 18.1929 16.7608V16.7606ZM9.4486 16.5769V16.607C9.4486 16.6733 9.42226 16.7369 9.37538 16.7838C9.32849 16.8307 9.2649 16.857 9.1986 16.857C9.13229 16.857 9.06871 16.8307 9.02182 16.7838C8.97494 16.7369 8.9486 16.6733 8.9486 16.607V16.5769C8.9486 16.5106 8.97494 16.447 9.02182 16.4001C9.06871 16.3532 9.13229 16.3269 9.1986 16.3269C9.2649 16.3269 9.32849 16.3532 9.37538 16.4001C9.42226 16.447 9.4486 16.5106 9.4486 16.5769ZM16.9502 8.14319C16.9351 8.09679 16.9068 8.05581 16.8687 8.0253C16.8306 7.9948 16.7844 7.97611 16.7358 7.97153L14.944 7.80278L14.2296 6.15078C14.2103 6.106 14.1782 6.06786 14.1374 6.04107C14.0967 6.01428 14.049 6 14.0002 6C13.9514 6 13.9036 6.01428 13.8629 6.04107C13.8221 6.06786 13.7901 6.106 13.7707 6.15078L13.0564 7.80275L11.2646 7.9715C11.216 7.97608 11.1699 7.99477 11.1318 8.02527C11.0937 8.05577 11.0654 8.09675 11.0503 8.14315C11.0352 8.18955 11.0341 8.23934 11.0469 8.2864C11.0598 8.33346 11.0862 8.37572 11.1228 8.40797L12.4732 9.59772L12.08 11.354C12.0694 11.4016 12.0729 11.4513 12.0901 11.4969C12.1073 11.5425 12.1376 11.5821 12.177 11.6108C12.2165 11.6395 12.2635 11.656 12.3122 11.6583C12.361 11.6606 12.4093 11.6486 12.4513 11.6237L14.0002 10.7071L15.549 11.6238C15.591 11.6486 15.6393 11.6606 15.688 11.6584C15.7368 11.6561 15.7838 11.6396 15.8232 11.6109C15.8627 11.5822 15.8929 11.5426 15.9102 11.497C15.9274 11.4513 15.9309 11.4016 15.9203 11.354L15.5271 9.59778L16.8775 8.40803C16.9141 8.3758 16.9405 8.33354 16.9535 8.28648C16.9664 8.23942 16.9652 8.18961 16.9502 8.14319ZM15.0857 9.32041C15.0521 9.35002 15.027 9.38813 15.0132 9.43073C14.9994 9.47334 14.9972 9.51888 15.007 9.5626L15.3062 10.899L14.1277 10.2015C14.0891 10.1786 14.0451 10.1666 14.0003 10.1666C13.9555 10.1666 13.9115 10.1786 13.873 10.2015L12.6944 10.899L12.9935 9.5625C13.0033 9.51879 13.0011 9.47324 12.9873 9.43064C12.9734 9.38803 12.9484 9.34993 12.9148 9.32031L11.8873 8.415L13.2507 8.28656C13.2953 8.28236 13.3379 8.26625 13.3742 8.23991C13.4104 8.21358 13.4389 8.17799 13.4567 8.13688L14.0002 6.87997L14.5436 8.13697C14.5614 8.17809 14.5899 8.21367 14.6261 8.24001C14.6624 8.26634 14.705 8.28245 14.7496 8.28666L16.1131 8.4151L15.0857 9.32041ZM21.3515 9.60813C21.3364 9.56172 21.3081 9.52074 21.27 9.49024C21.2319 9.45974 21.1858 9.44105 21.1372 9.43647L19.8745 9.31753L19.371 8.15338C19.3516 8.10859 19.3196 8.07046 19.2788 8.04366C19.238 8.01687 19.1903 8.00259 19.1415 8.00259C19.0927 8.00259 19.045 8.01687 19.0042 8.04366C18.9635 8.07046 18.9314 8.10859 18.9121 8.15338L18.4088 9.31753L17.146 9.43647C17.0974 9.44104 17.0512 9.45973 17.0132 9.49023C16.9751 9.52074 16.9467 9.56172 16.9317 9.60812C16.9166 9.65453 16.9154 9.70433 16.9283 9.75139C16.9412 9.79846 16.9676 9.84072 17.0042 9.87297L17.9558 10.7114L17.6788 11.9491C17.6681 11.9967 17.6716 12.0464 17.6889 12.092C17.7061 12.1377 17.7364 12.1773 17.7759 12.2059C17.8153 12.2346 17.8623 12.2511 17.9111 12.2534C17.9598 12.2557 18.0082 12.2436 18.0502 12.2188L19.1416 11.5728L20.233 12.2188C20.275 12.2436 20.3233 12.2556 20.3721 12.2533C20.4208 12.2511 20.4678 12.2346 20.5073 12.2059C20.5468 12.1772 20.577 12.1376 20.5942 12.092C20.6115 12.0463 20.615 11.9966 20.6043 11.949L20.3272 10.7113L21.2788 9.87291C21.3154 9.84066 21.3418 9.79841 21.3547 9.75136C21.3676 9.70431 21.3664 9.65452 21.3513 9.60813H21.3515ZM19.8859 10.434C19.8523 10.4636 19.8272 10.5018 19.8134 10.5444C19.7995 10.587 19.7974 10.6325 19.8072 10.6762L19.9903 11.494L19.2689 11.0672C19.2304 11.0444 19.1864 11.0323 19.1416 11.0323C19.0968 11.0323 19.0528 11.0444 19.0142 11.0672L18.2931 11.494L18.4761 10.6762C18.4859 10.6325 18.4838 10.587 18.4699 10.5444C18.4561 10.5018 18.4311 10.4636 18.3974 10.434L17.7686 9.88006L18.603 9.80144C18.6476 9.79724 18.6902 9.78113 18.7265 9.7548C18.7627 9.72846 18.7912 9.69287 18.809 9.65175L19.1416 8.88253L19.4741 9.65175C19.4919 9.69287 19.5204 9.72846 19.5567 9.7548C19.5929 9.78113 19.6356 9.79724 19.6802 9.80144L20.5145 9.88006L19.8859 10.434ZM10.8546 9.43647L9.59191 9.31753L9.08825 8.15338C9.06889 8.10859 9.03685 8.07046 8.99607 8.04366C8.9553 8.01687 8.90758 8.00259 8.85879 8.00259C8.81 8.00259 8.76227 8.01687 8.7215 8.04366C8.68072 8.07046 8.64868 8.10859 8.62932 8.15338L8.126 9.31753L6.86329 9.43647C6.81471 9.44104 6.76853 9.45973 6.73044 9.49023C6.69236 9.52074 6.66403 9.56172 6.64895 9.60812C6.63388 9.65453 6.63271 9.70433 6.64559 9.75139C6.65848 9.79846 6.68486 9.84072 6.72147 9.87297L7.6731 10.7114L7.396 11.9491C7.38536 11.9967 7.38888 12.0464 7.40613 12.092C7.42337 12.1376 7.45359 12.1772 7.49307 12.2059C7.53254 12.2346 7.57954 12.251 7.62827 12.2533C7.677 12.2556 7.72533 12.2436 7.76732 12.2188L8.85879 11.5728L9.95016 12.2188C9.99215 12.2436 10.0405 12.2556 10.0892 12.2533C10.138 12.251 10.185 12.2345 10.2244 12.2059C10.2639 12.1772 10.2941 12.1376 10.3113 12.0919C10.3286 12.0463 10.3321 11.9966 10.3214 11.949L10.0443 10.7113L10.996 9.87291C11.0326 9.84066 11.059 9.79839 11.0719 9.75133C11.0848 9.70427 11.0836 9.65447 11.0685 9.60806C11.0534 9.56165 11.0251 9.52067 10.987 9.49017C10.949 9.45967 10.9028 9.44098 10.8542 9.43641L10.8546 9.43647ZM9.60325 10.434C9.56964 10.4636 9.54461 10.5018 9.53076 10.5444C9.51692 10.587 9.51478 10.6325 9.52457 10.6762L9.70763 11.494L8.98613 11.0672C8.94757 11.0444 8.90359 11.0323 8.85879 11.0323C8.81398 11.0323 8.77 11.0444 8.73144 11.0672L8.01025 11.494L8.19335 10.6762C8.20313 10.6325 8.20099 10.587 8.18715 10.5444C8.17331 10.5018 8.14827 10.4636 8.11466 10.434L7.48585 9.88006L8.32022 9.80144C8.36483 9.79724 8.40748 9.78113 8.44373 9.7548C8.47997 9.72846 8.50848 9.69287 8.52625 9.65175L8.85879 8.88256L9.19135 9.65175C9.20912 9.69287 9.23762 9.72846 9.27386 9.75479C9.3101 9.78112 9.35275 9.79723 9.39735 9.80144L10.2317 9.88006L9.60325 10.434Z" fill="white"/>
</g>
<defs>
<clipPath id="clip0_419_4586">
<rect width="16" height="16" fill="white" transform="translate(6 6)"/>
</clipPath>
</defs>
</svg>
