<svg width="20" height="20" viewBox="0 0 20 20" fill="none" xmlns="http://www.w3.org/2000/svg">
<g clip-path="url(#clip0_327_1305)">
<path d="M1.66663 1.66675H2.7551C2.96011 1.66675 3.06262 1.66675 3.14511 1.70445C3.21781 1.73767 3.27941 1.7911 3.32258 1.85837C3.37157 1.9347 3.38607 2.03618 3.41506 2.23913L3.80948 5.00008M3.80948 5.00008L4.68606 11.4429C4.7973 12.2605 4.85292 12.6693 5.04838 12.977C5.22061 13.2482 5.46753 13.4638 5.75942 13.5979C6.09068 13.7501 6.50325 13.7501 7.32838 13.7501H14.46C15.2454 13.7501 15.6381 13.7501 15.9591 13.6088C16.2421 13.4842 16.4848 13.2833 16.6602 13.0286C16.8591 12.7398 16.9326 12.354 17.0795 11.5824L18.1825 5.79149C18.2343 5.51992 18.2601 5.38414 18.2227 5.278C18.1898 5.18489 18.1249 5.10649 18.0396 5.05676C17.9423 5.00008 17.8041 5.00008 17.5277 5.00008H3.80948ZM8.33329 17.5001C8.33329 17.9603 7.9602 18.3334 7.49996 18.3334C7.03972 18.3334 6.66663 17.9603 6.66663 17.5001C6.66663 17.0398 7.03972 16.6667 7.49996 16.6667C7.9602 16.6667 8.33329 17.0398 8.33329 17.5001ZM15 17.5001C15 17.9603 14.6269 18.3334 14.1666 18.3334C13.7064 18.3334 13.3333 17.9603 13.3333 17.5001C13.3333 17.0398 13.7064 16.6667 14.1666 16.6667C14.6269 16.6667 15 17.0398 15 17.5001Z" stroke="white" stroke-width="2" stroke-linecap="round" stroke-linejoin="round"/>
</g>
<defs>
<clipPath id="clip0_327_1305">
<rect width="20" height="20" fill="white"/>
</clipPath>
</defs>
</svg>
