<svg width="66" height="66" viewBox="0 0 66 66" fill="none" xmlns="http://www.w3.org/2000/svg">
<rect width="66" height="66" rx="33" fill="#2A2A2A"/>
<path d="M37.5004 43.5C37.5004 45.9853 35.4857 48 33.0004 48C30.5151 48 28.5004 45.9853 28.5004 43.5M35.6951 24.3578C36.3484 23.683 36.7504 22.7634 36.7504 21.75C36.7504 19.6789 35.0714 18 33.0004 18C30.9293 18 29.2504 19.6789 29.2504 21.75C29.2504 22.7634 29.6524 23.683 30.3056 24.3578M18.8206 27.4844C18.7991 25.3074 19.9728 23.2745 21.8689 22.2046M47.1801 27.4844C47.2017 25.3074 46.0279 23.2745 44.1318 22.2046M42.0004 31.8C42.0004 29.7313 41.0522 27.7474 39.3643 26.2846C37.6765 24.8218 35.3873 24 33.0004 24C30.6134 24 28.3242 24.8218 26.6364 26.2846C24.9486 27.7474 24.0004 29.7313 24.0004 31.8C24.0004 35.2227 23.1516 37.7259 22.0925 39.517C20.8854 41.5584 20.2818 42.5791 20.3057 42.823C20.3329 43.1019 20.3831 43.1899 20.6094 43.3554C20.8071 43.5 21.8006 43.5 23.7877 43.5H42.2131C44.2001 43.5 45.1936 43.5 45.3914 43.3554C45.6176 43.1899 45.6678 43.1019 45.6951 42.823C45.7189 42.5791 45.1154 41.5584 43.9083 39.517C42.8492 37.7259 42.0004 35.2227 42.0004 31.8Z" stroke="white" stroke-width="2.25" stroke-linecap="round" stroke-linejoin="round"/>
</svg>
