<svg width="59" height="74" viewBox="0 0 59 74" fill="none" xmlns="http://www.w3.org/2000/svg">
<g opacity="0.2">
<path d="M31.9467 63.8895L29.9909 61.9337L55.0903 36.8342L29.9909 11.7347L31.9467 9.77894L59.002 36.8342L31.9467 63.8895Z" fill="#272727"/>
<path d="M0.00136663 18.5801L0.00136638 21.5138L18.2555 2.93371L52.4821 36.8343L18.5815 70.409L0.0013637 52.1548L0.00136347 54.7625L18.5815 73.3427L55.0898 36.8343L18.2555 1.93787e-06L0.00136663 18.5801Z" fill="white"/>
<path d="M26.405 58.022L28.6868 60.3037L52.4824 36.8341L28.6868 13.3644L26.405 15.6462L47.5929 36.8341L26.405 58.022Z" fill="#C3C5C6"/>
<path d="M24.1225 17.9283L26.4043 15.6466L19.885 8.80124L0.00094838 28.3593L0.000947952 33.2488L19.885 13.6908L24.1225 17.9283Z" fill="#C3C5C6"/>
<path d="M24.1241 55.7407L26.4059 58.0225L47.5938 36.8346L26.4059 15.6467L24.1241 17.9285L43.0302 36.8346L24.1241 55.7407Z" fill="#272727"/>
<path d="M24.1225 55.7404L26.4043 58.0222L19.559 65.1935L0.000949662 45.6354L0.000950061 41.0719L19.559 60.304L24.1225 55.7404Z" fill="#C3C5C6"/>
<rect x="19.8848" y="53.3244" width="23.4696" height="23.4696" transform="rotate(-135 19.8848 53.3244)" fill="white"/>
</g>
</svg>
