<svg width="83" height="103" viewBox="0 0 83 103" fill="none" xmlns="http://www.w3.org/2000/svg">
<g opacity="0.2">
<path d="M37.9181 13.2485L40.6592 15.9896L5.48213 51.1666L40.6592 86.3437L37.9181 89.0847L0 51.1666L37.9181 13.2485Z" fill="#272727"/>
<path d="M82.6889 76.7499V72.6383L57.1056 98.6784L9.13693 51.1666L56.6488 4.1116L82.6889 29.6949V26.0401L56.6488 0L5.48218 51.1666L57.1056 102.79L82.6889 76.7499Z" fill="white"/>
<path d="M45.6843 21.4723L42.4864 18.2744L9.13672 51.1672L42.4864 84.06L45.6843 80.8621L15.9894 51.1672L45.6843 21.4723Z" fill="#C3C5C6"/>
<path d="M48.882 77.6636L45.6841 80.8615L54.821 90.4552L82.6885 63.0446V56.1919L54.821 83.6026L48.882 77.6636Z" fill="#C3C5C6"/>
<path d="M48.8821 24.6696L45.6841 21.4717L15.9893 51.1666L45.6841 80.8615L48.8821 77.6636L22.3851 51.1666L48.8821 24.6696Z" fill="#272727"/>
<path d="M48.882 24.6694L45.6841 21.4715L55.2778 11.4209L82.6885 38.8316V45.2274L55.2778 18.2736L48.882 24.6694Z" fill="#C3C5C6"/>
<rect x="54.8215" y="28.0557" width="32.8928" height="32.8928" transform="rotate(45 54.8215 28.0557)" fill="white"/>
</g>
</svg>
