<svg width="44" height="44" viewBox="0 0 44 44" fill="none" xmlns="http://www.w3.org/2000/svg">
<rect width="44" height="44" rx="22" fill="#2A2A2A"/>
<path fill-rule="evenodd" clip-rule="evenodd" d="M25.7935 30.4442C24.5935 30.4 21.1927 29.93 17.631 26.3692C14.0702 22.8075 13.601 19.4075 13.556 18.2067C13.4893 16.3767 14.891 14.5992 16.5102 13.905C16.7051 13.8208 16.9187 13.7887 17.1298 13.812C17.3409 13.8352 17.5423 13.9129 17.7143 14.0375C19.0477 15.0092 19.9677 16.4792 20.7577 17.635C20.9315 17.8889 21.0058 18.198 20.9665 18.5032C20.9271 18.8084 20.7769 19.0884 20.5443 19.29L18.9185 20.4975C18.8399 20.5542 18.7847 20.6375 18.7629 20.7319C18.7411 20.8263 18.7544 20.9254 18.8002 21.0108C19.1685 21.68 19.8235 22.6767 20.5735 23.4267C21.3235 24.1767 22.3677 24.875 23.0835 25.285C23.1732 25.3354 23.2789 25.3495 23.3787 25.3244C23.4785 25.2992 23.5649 25.2368 23.6202 25.15L24.6785 23.5392C24.8731 23.2807 25.1601 23.1076 25.4795 23.056C25.7989 23.0044 26.1258 23.0784 26.3918 23.2625C27.5643 24.0742 28.9327 24.9783 29.9343 26.2608C30.069 26.4341 30.1547 26.6403 30.1824 26.858C30.2101 27.0757 30.1788 27.2969 30.0918 27.4983C29.3943 29.1258 27.6293 30.5117 25.7935 30.4442Z" fill="white"/>
</svg>
