<svg width="44" height="44" viewBox="0 0 44 44" fill="none" xmlns="http://www.w3.org/2000/svg">
<rect width="44" height="44" rx="22" fill="#2A2A2A"/>
<path d="M14 16.8C14 15.1198 14 14.2798 14.327 13.638C14.6146 13.0735 15.0735 12.6146 15.638 12.327C16.2798 12 17.1198 12 18.8 12H25.2C26.8802 12 27.7202 12 28.362 12.327C28.9265 12.6146 29.3854 13.0735 29.673 13.638C30 14.2798 30 15.1198 30 16.8V27.2C30 28.8802 30 29.7202 29.673 30.362C29.3854 30.9265 28.9265 31.3854 28.362 31.673C27.7202 32 26.8802 32 25.2 32H18.8C17.1198 32 16.2798 32 15.638 31.673C15.0735 31.3854 14.6146 30.9265 14.327 30.362C14 29.7202 14 28.8802 14 27.2V16.8Z" fill="white"/>
<path d="M24 21H18M20 25H18M26 17H18M30 16.8V27.2C30 28.8802 30 29.7202 29.673 30.362C29.3854 30.9265 28.9265 31.3854 28.362 31.673C27.7202 32 26.8802 32 25.2 32H18.8C17.1198 32 16.2798 32 15.638 31.673C15.0735 31.3854 14.6146 30.9265 14.327 30.362C14 29.7202 14 28.8802 14 27.2V16.8C14 15.1198 14 14.2798 14.327 13.638C14.6146 13.0735 15.0735 12.6146 15.638 12.327C16.2798 12 17.1198 12 18.8 12H25.2C26.8802 12 27.7202 12 28.362 12.327C28.9265 12.6146 29.3854 13.0735 29.673 13.638C30 14.2798 30 15.1198 30 16.8Z" stroke="#2A2A2A" stroke-width="2" stroke-linecap="round" stroke-linejoin="round"/>
</svg>
