<svg width="18" height="20" viewBox="0 0 18 20" fill="none" xmlns="http://www.w3.org/2000/svg">
<path d="M0.666992 4.26669H2.44477H16.667" stroke="white" stroke-width="1.33333" stroke-linecap="round" stroke-linejoin="round"/>
<path d="M14.8878 4.26666V16.8667C14.8878 17.344 14.7005 17.8019 14.3671 18.1395C14.0337 18.477 13.5815 18.6667 13.11 18.6667H4.22114C3.74964 18.6667 3.29746 18.477 2.96406 18.1395C2.63066 17.8019 2.44336 17.344 2.44336 16.8667V4.26666M5.11003 4.26666V2.46666C5.11003 1.98927 5.29733 1.53143 5.63073 1.19386C5.96412 0.856299 6.41631 0.666656 6.8878 0.666656H10.4434C10.9149 0.666656 11.367 0.856299 11.7004 1.19386C12.0338 1.53143 12.2211 1.98927 12.2211 2.46666V4.26666" stroke="white" stroke-width="1.33333" stroke-linecap="round" stroke-linejoin="round"/>
<path d="M6.8877 8.76672V14.1667" stroke="white" stroke-width="1.33333" stroke-linecap="round" stroke-linejoin="round"/>
<path d="M10.4463 8.76672V14.1667" stroke="white" stroke-width="1.33333" stroke-linecap="round" stroke-linejoin="round"/>
</svg>
