<svg width="20" height="20" viewBox="0 0 20 20" fill="none" xmlns="http://www.w3.org/2000/svg">
<path d="M10 5.83333C14.1421 5.83333 17.5 5.08714 17.5 4.16667C17.5 3.24619 14.1421 2.5 10 2.5C5.85786 2.5 2.5 3.24619 2.5 4.16667C2.5 5.08714 5.85786 5.83333 10 5.83333Z" stroke="#B7B9B9" stroke-width="1.5" stroke-linecap="round" stroke-linejoin="round"/>
<path d="M2.5 4.16699C2.5 6.02533 5.72583 9.72866 7.38 11.5045C7.98658 12.1478 8.32718 12.997 8.33333 13.8812V15.8337C8.33333 16.2757 8.50893 16.6996 8.82149 17.0122C9.13405 17.3247 9.55797 17.5003 10 17.5003C10.442 17.5003 10.866 17.3247 11.1785 17.0122C11.4911 16.6996 11.6667 16.2757 11.6667 15.8337V13.8812C11.6667 12.997 12.0175 12.152 12.62 11.5045C14.275 9.72866 17.5 6.02616 17.5 4.16699" stroke="#B7B9B9" stroke-width="1.5" stroke-linecap="round" stroke-linejoin="round"/>
</svg>
