<svg width="159" height="38" viewBox="0 0 159 38" fill="none" xmlns="http://www.w3.org/2000/svg">
<path d="M7.63821 19.519L20.0219 7.24987L18.2961 5.54004L4.18671 19.519L18.2961 33.498L20.0219 31.7882L7.63821 19.519Z" fill="#414042"/>
<path d="M20.0219 31.7883L21.4289 30.3943L10.4523 19.5192L21.4289 8.64405L20.0219 7.25L7.63824 19.5192L20.0219 31.7883Z" fill="url(#paint0_linear_406_2369)"/>
<path d="M24.3646 11.5564L16.3281 19.5186L24.3646 27.4807L32.401 19.5186L24.3646 11.5564Z" fill="#EF3B24"/>
<path d="M22.5329 9.72972L21.4368 8.64375L24.3753 5.73242L33.9759 15.2443V17.4239L24.3753 7.91207L22.5407 9.72972H22.5329ZM33.9759 21.6061L24.3753 31.118L22.5407 29.3003L21.4445 30.3863L24.3831 33.2976L33.9836 23.7857V21.6061H33.9759Z" fill="url(#paint1_linear_406_2369)"/>
<path d="M92.4113 12.7959H81.0149V14.8446H85.2439V25.997H88.1823V14.8446H92.4113V12.7959Z" fill="white"/>
<path d="M102.276 12.8113L102.245 12.7959L96.3059 22.2924V12.8113H93.3596V26.0124H96.3059V25.92L96.4225 25.997L102.261 16.6546V26.0124H105.207V12.8113H102.276Z" fill="white"/>
<path d="M49.6088 12.7646V18.1791H43.7008V12.7646H40.6768V25.9811H43.7008V20.2355H49.6088V25.9811H52.6328V12.7646H49.6088Z" fill="white"/>
<path d="M79.9965 23.9397H74.2673C73.0856 23.9397 71.4531 23.339 71.4531 21.8217V16.9695C71.4531 15.2134 73.0856 14.8514 74.2673 14.8514H79.9965V12.8027H71.9118C69.7118 12.8027 68.5146 13.958 68.5146 16.7461V22.0604C68.5146 25.0488 69.8673 26.0038 72.0051 26.0038H79.9965V23.9551V23.9397Z" fill="white"/>
<path d="M115.647 12.7959H119.93V26.0663H116.953V14.937H115.88L109.109 25.635C108.969 25.8507 108.728 25.9816 108.472 25.9816H106.598C106.528 25.9816 106.482 25.9046 106.52 25.843L114.302 13.5353C114.59 13.0732 115.103 12.7959 115.647 12.7959ZM143.119 12.819L143.088 12.7959L137.126 18.1333V12.819H134.187V26.0201H137.126V20.7366L142.668 26.0278H145.933L138.852 19.1808L145.933 12.8267H143.112L143.119 12.819ZM123.273 12.7959H122.037V26.0124H132.267V23.9021H125.061V20.3823H131.505V18.1179H125.061V14.9062H132.267V12.7959H123.273ZM152.393 14.8446H158.123V12.7959H150.038C147.838 12.7959 146.641 13.9512 146.641 16.7393V22.0536C146.641 25.042 147.993 25.997 150.131 25.997H158.123V23.9483H152.393C151.212 23.9483 149.579 23.3475 149.579 21.8303V16.978C149.579 15.222 151.212 14.86 152.393 14.86V14.8446Z" fill="#EF3B24"/>
<path d="M62.3112 12.7959C61.767 12.7959 61.2538 13.0732 60.9662 13.5353L53.1847 25.843C53.1458 25.9046 53.1847 25.9816 53.2625 25.9816H55.1359C55.3924 25.9816 55.6335 25.8507 55.7734 25.635L57.2582 23.2936H63.6171V26.0663H66.5944V12.7959H62.3112ZM58.8362 20.7982L62.5443 14.937H63.6171V20.7982H58.8362Z" fill="white"/>
<path d="M21.4289 30.3948L10.4524 19.5197L21.4289 8.64453L22.5329 9.73051L12.6524 19.5197L22.5329 29.3088L21.4289 30.3948Z" fill="#414042"/>
<path d="M33.9679 26.5893L24.3673 36.0934L7.63812 19.5189L24.3673 2.94437L33.9679 12.4562V11.3626L24.3673 1.8584L6.54199 19.5189L24.3673 37.1871L33.9679 27.6752V26.5893Z" fill="#EF3B24"/>
<defs>
<linearGradient id="paint0_linear_406_2369" x1="13.8339" y1="25.6576" x2="26.1026" y2="13.2745" gradientUnits="userSpaceOnUse">
<stop stop-color="#DED9D6"/>
<stop offset="0.06" stop-color="#CFCDCB"/>
<stop offset="0.17" stop-color="#A8B0B1"/>
<stop offset="0.26" stop-color="#86969A"/>
<stop offset="0.27" stop-color="#87979B"/>
<stop offset="0.41" stop-color="#B7BEC0"/>
<stop offset="0.51" stop-color="#D4D6D7"/>
<stop offset="0.57" stop-color="#E0E0E0"/>
<stop offset="0.63" stop-color="#D6D7D7"/>
<stop offset="0.73" stop-color="#BCBFC1"/>
<stop offset="0.86" stop-color="#91989D"/>
<stop offset="0.88" stop-color="#8B9298"/>
<stop offset="1" stop-color="#A7A9AC"/>
</linearGradient>
<linearGradient id="paint1_linear_406_2369" x1="21.429" y1="19.5189" x2="33.9681" y2="19.5189" gradientUnits="userSpaceOnUse">
<stop stop-color="#939B9F"/>
<stop offset="0.19" stop-color="#BDC2C4"/>
<stop offset="0.36" stop-color="#E1E3E4"/>
<stop offset="0.51" stop-color="#D7D9DB"/>
<stop offset="0.75" stop-color="#BDC1C5"/>
<stop offset="1" stop-color="#9CA3AA"/>
</linearGradient>
</defs>
</svg>
