<svg width="17" height="22" viewBox="0 0 17 22" fill="none" xmlns="http://www.w3.org/2000/svg">
<path d="M9.20473 18.4087L8.64121 17.8452L15.8732 10.6132L8.64121 3.38126L9.20474 2.81773L17.0002 10.6132L9.20473 18.4087Z" fill="#EF3B24"/>
<path d="M0.000542113 5.35352L0.000542039 6.19882L5.26014 0.845298L15.1219 10.6131L5.35406 20.287L0.000541267 15.0274L0.000541201 15.7788L5.35406 21.1323L15.8733 10.6131L5.26014 4.79422e-06L0.000542113 5.35352Z" fill="white"/>
<path d="M7.60759 16.718L8.26504 17.3755L15.1213 10.6131L8.26504 3.85081L7.60759 4.50826L13.7125 10.6131L7.60759 16.718Z" fill="#C3C5C6"/>
<path d="M6.95018 5.16577L7.60763 4.50832L5.72921 2.53597L1.55367e-06 8.17126L1.43051e-06 9.58008L5.72921 3.94479L6.95018 5.16577Z" fill="#C3C5C6"/>
<path d="M6.95076 16.0608L7.60821 16.7183L13.7131 10.6134L7.60821 4.50848L6.95076 5.16593L12.3982 10.6134L6.95076 16.0608Z" fill="#EF3B24"/>
<path d="M6.95018 16.0605L7.60763 16.7179L5.63528 18.7842L1.92316e-06 13.1489L2.03812e-06 11.834L5.63528 17.3754L6.95018 16.0605Z" fill="#C3C5C6"/>
<rect x="5.7297" y="15.3643" width="6.76234" height="6.76234" transform="rotate(-135 5.7297 15.3643)" fill="white"/>
</svg>
