<svg width="30" height="30" viewBox="0 0 30 30" fill="none" xmlns="http://www.w3.org/2000/svg">
<rect width="30" height="30" rx="15" fill="#2A2A2A"/>
<path d="M21.2552 11.633C20.6606 13.9517 19.4539 16.0681 17.7612 17.7607C16.0686 19.4534 13.9522 20.6601 11.6335 21.2547C9.84933 21.7088 8.3335 20.1747 8.3335 18.333V17.4997C8.3335 17.0397 8.70766 16.6705 9.16516 16.6247C9.92383 16.5493 10.6686 16.3701 11.3785 16.0922L12.6452 17.3588C14.7076 16.3702 16.3707 14.7071 17.3593 12.6447L16.0927 11.378C16.3709 10.6681 16.5503 9.92338 16.626 9.16467C16.671 8.70634 17.0402 8.33301 17.5002 8.33301H18.3335C20.1752 8.33301 21.7093 9.84884 21.2552 11.633Z" stroke="white" stroke-width="2" stroke-linecap="round" stroke-linejoin="round"/>
</svg>
