<svg width="25" height="25" viewBox="0 0 25 25" fill="none" xmlns="http://www.w3.org/2000/svg">
<path d="M8.94445 1H2C1.44772 1 1 1.44771 1 2V8.94444C1 9.49673 1.44771 9.94444 2 9.94444H8.94444C9.49673 9.94444 9.94444 9.49673 9.94444 8.94445V2C9.94444 1.44772 9.49673 1 8.94445 1Z" stroke="#2A2A2A" stroke-width="2" stroke-linecap="round"/>
<path d="M23.0001 1H16.0557C15.5034 1 15.0557 1.44771 15.0557 2V8.94444C15.0557 9.49673 15.5034 9.94444 16.0557 9.94444H23.0001C23.5524 9.94444 24.0001 9.49673 24.0001 8.94445V2C24.0001 1.44772 23.5524 1 23.0001 1Z" stroke="#2A2A2A" stroke-width="2" stroke-linecap="round"/>
<path d="M23.0001 15.0555H16.0557C15.5034 15.0555 15.0557 15.5033 15.0557 16.0555V23C15.0557 23.5523 15.5034 24 16.0557 24H23.0001C23.5524 24 24.0001 23.5523 24.0001 23V16.0555C24.0001 15.5033 23.5524 15.0555 23.0001 15.0555Z" stroke="#2A2A2A" stroke-width="2" stroke-linecap="round"/>
<path d="M8.94445 15.0555H2C1.44772 15.0555 1 15.5033 1 16.0555V23C1 23.5523 1.44771 24 2 24H8.94444C9.49673 24 9.94444 23.5523 9.94444 23V16.0555C9.94444 15.5033 9.49673 15.0555 8.94445 15.0555Z" stroke="#2A2A2A" stroke-width="2" stroke-linecap="round"/>
</svg>
