<svg width="44" height="44" viewBox="0 0 44 44" fill="none" xmlns="http://www.w3.org/2000/svg">
<rect width="44" height="44" rx="22" fill="#272727"/>
<path d="M29.4851 30.154L23.2231 23.892C22.7231 24.318 22.1481 24.6477 21.4981 24.881C20.8481 25.1144 20.1948 25.231 19.5381 25.231C17.9368 25.231 16.5814 24.6767 15.4721 23.568C14.3628 22.4594 13.8081 21.1044 13.8081 19.503C13.8081 17.9017 14.3621 16.546 15.4701 15.436C16.5781 14.326 17.9328 13.7704 19.5341 13.769C21.1354 13.7677 22.4914 14.3224 23.6021 15.433C24.7128 16.5437 25.2681 17.8994 25.2681 19.5C25.2681 20.1947 25.1451 20.867 24.8991 21.517C24.6531 22.167 24.3298 22.723 23.9291 23.185L30.1911 29.446L29.4851 30.154ZM19.5391 24.23C20.8658 24.23 21.9858 23.7734 22.8991 22.86C23.8124 21.9467 24.2691 20.8264 24.2691 19.499C24.2691 18.1717 23.8124 17.0517 22.8991 16.139C21.9858 15.2264 20.8658 14.7697 19.5391 14.769C18.2124 14.7684 17.0921 15.225 16.1781 16.139C15.2641 17.053 14.8074 18.173 14.8081 19.499C14.8088 20.825 15.2654 21.945 16.1781 22.859C17.0908 23.773 18.2108 24.2297 19.5381 24.229" fill="white"/>
</svg>
