<svg width="19" height="19" viewBox="0 0 19 19" fill="none" xmlns="http://www.w3.org/2000/svg">
<path d="M2.375 10.2917C5.225 3.95832 13.775 3.95832 16.625 10.2917" stroke="white" stroke-width="1.5" stroke-linecap="round" stroke-linejoin="round"/>
<path d="M9.5 13.4583C9.18811 13.4583 8.87928 13.3969 8.59113 13.2775C8.30298 13.1582 8.04116 12.9832 7.82062 12.7627C7.60008 12.5422 7.42514 12.2803 7.30579 11.9922C7.18643 11.704 7.125 11.3952 7.125 11.0833C7.125 10.7714 7.18643 10.4626 7.30579 10.1744C7.42514 9.88629 7.60008 9.62447 7.82062 9.40393C8.04116 9.18339 8.30298 9.00845 8.59113 8.8891C8.87928 8.76974 9.18811 8.70831 9.5 8.70831C10.1299 8.70831 10.734 8.95854 11.1794 9.40393C11.6248 9.84933 11.875 10.4534 11.875 11.0833C11.875 11.7132 11.6248 12.3173 11.1794 12.7627C10.734 13.2081 10.1299 13.4583 9.5 13.4583Z" stroke="white" stroke-width="1.5" stroke-linecap="round" stroke-linejoin="round"/>
</svg>
