<svg width="19" height="19" viewBox="0 0 19 19" fill="none" xmlns="http://www.w3.org/2000/svg">
<path d="M2.375 10.2915C5.225 3.95817 13.775 3.95817 16.625 10.2915" stroke="#808080" stroke-width="1.5" stroke-linecap="round" stroke-linejoin="round"/>
<path d="M9.5 13.458C9.18811 13.458 8.87928 13.3966 8.59113 13.2772C8.30298 13.1579 8.04116 12.9829 7.82062 12.7624C7.60008 12.5418 7.42514 12.28 7.30579 11.9919C7.18643 11.7037 7.125 11.3949 7.125 11.083C7.125 10.7711 7.18643 10.4623 7.30579 10.1741C7.42514 9.88599 7.60008 9.62417 7.82062 9.40363C8.04116 9.18309 8.30298 9.00815 8.59113 8.88879C8.87928 8.76944 9.18811 8.70801 9.5 8.70801C10.1299 8.70801 10.734 8.95823 11.1794 9.40363C11.6248 9.84903 11.875 10.4531 11.875 11.083C11.875 11.7129 11.6248 12.317 11.1794 12.7624C10.734 13.2078 10.1299 13.458 9.5 13.458Z" stroke="#808080" stroke-width="1.5" stroke-linecap="round" stroke-linejoin="round"/>
</svg>
