<svg width="44" height="44" viewBox="0 0 44 44" fill="none" xmlns="http://www.w3.org/2000/svg">
<rect width="44" height="44" rx="22" fill="#2A2A2A"/>
<path d="M22 22H22.005M17.8 31H26.2C27.8802 31 28.7202 31 29.362 30.673C29.9265 30.3854 30.3854 29.9265 30.673 29.362C31 28.7202 31 27.8802 31 26.2V17.8C31 16.1198 31 15.2798 30.673 14.638C30.3854 14.0735 29.9265 13.6146 29.362 13.327C28.7202 13 27.8802 13 26.2 13H17.8C16.1198 13 15.2798 13 14.638 13.327C14.0735 13.6146 13.6146 14.0735 13.327 14.638C13 15.2798 13 16.1198 13 17.8V26.2C13 27.8802 13 28.7202 13.327 29.362C13.6146 29.9265 14.0735 30.3854 14.638 30.673C15.2798 31 16.1198 31 17.8 31ZM22.25 22C22.25 22.1381 22.1381 22.25 22 22.25C21.8619 22.25 21.75 22.1381 21.75 22C21.75 21.8619 21.8619 21.75 22 21.75C22.1381 21.75 22.25 21.8619 22.25 22Z" stroke="white" stroke-width="1.5" stroke-linecap="round" stroke-linejoin="round"/>
</svg>
