<svg width="44" height="44" viewBox="0 0 44 44" fill="none" xmlns="http://www.w3.org/2000/svg">
<rect width="44" height="44" rx="22" fill="#2A2A2A"/>
<path d="M16 29.087H18.6103C18.9506 29.087 19.2889 29.1275 19.6188 29.2085L22.3769 29.8788C22.9753 30.0246 23.5988 30.0387 24.2035 29.9213L27.253 29.328C28.0585 29.1711 28.7996 28.7853 29.3803 28.2204L31.5379 26.1216C32.154 25.5233 32.154 24.5523 31.5379 23.953C30.9832 23.4133 30.1047 23.3526 29.4771 23.8102L26.9626 25.6447C26.6025 25.908 26.1643 26.0497 25.7137 26.0497H23.2855L24.8311 26.0497C25.7022 26.0497 26.4079 25.3632 26.4079 24.5158V24.209C26.4079 23.5054 25.9156 22.8919 25.2141 22.7218L22.8286 22.1416C22.4404 22.0475 22.0428 21.9999 21.6431 21.9999C20.6783 21.9999 18.9319 22.7987 18.9319 22.7987L16 24.0248M12 23.5999L12 29.3999C12 29.9599 12 30.24 12.109 30.4539C12.2049 30.642 12.3578 30.795 12.546 30.8909C12.7599 30.9999 13.0399 30.9999 13.6 30.9999H14.4C14.9601 30.9999 15.2401 30.9999 15.454 30.8909C15.6422 30.795 15.7951 30.642 15.891 30.4539C16 30.24 16 29.9599 16 29.3999V23.5999C16 23.0398 16 22.7598 15.891 22.5459C15.7951 22.3577 15.6422 22.2048 15.454 22.1089C15.2401 21.9999 14.9601 21.9999 14.4 21.9999H13.6C13.0399 21.9999 12.7599 21.9999 12.546 22.1089C12.3578 22.2048 12.2049 22.3577 12.109 22.5459C12 22.7598 12 23.0398 12 23.5999ZM27.1914 12.5921C26.5946 11.3433 25.2186 10.6817 23.8804 11.3203C22.5423 11.9589 21.9722 13.4733 22.5325 14.8027C22.8787 15.6244 23.8707 17.2199 24.5781 18.3189C24.8394 18.725 24.9701 18.928 25.161 19.0468C25.3247 19.1487 25.5297 19.2036 25.7224 19.1972C25.9471 19.1898 26.1618 19.0793 26.5911 18.8583C27.7532 18.2602 29.4101 17.3744 30.1208 16.836C31.2707 15.9648 31.5556 14.3635 30.6947 13.1461C29.8337 11.9288 28.3327 11.809 27.1914 12.5921Z" stroke="white" stroke-width="1.5" stroke-linecap="round" stroke-linejoin="round"/>
</svg>
