<svg width="44" height="44" viewBox="0 0 44 44" fill="none" xmlns="http://www.w3.org/2000/svg">
<rect width="44" height="44" rx="22" fill="#2A2A2A"/>
<path d="M25.0002 29C25.0002 30.6569 23.6571 32 22.0002 32C20.3434 32 19.0002 30.6569 19.0002 29M23.7968 16.2386C24.2322 15.7886 24.5002 15.1756 24.5002 14.5C24.5002 13.1193 23.381 12 22.0002 12C20.6195 12 19.5002 13.1193 19.5002 14.5C19.5002 15.1756 19.7683 15.7886 20.2037 16.2386M12.5471 18.323C12.5327 16.8716 13.3152 15.5163 14.5793 14.8031M31.4534 18.323C31.4678 16.8716 30.6853 15.5163 29.4212 14.8031M28.0002 21.2C28.0002 19.8209 27.3681 18.4982 26.2429 17.523C25.1177 16.5479 23.5915 16 22.0002 16C20.4089 16 18.8828 16.5479 17.7576 17.523C16.6324 18.4982 16.0002 19.8209 16.0002 21.2C16.0002 23.4818 15.4344 25.1506 14.7283 26.3447C13.9236 27.7056 13.5212 28.3861 13.5371 28.5486C13.5553 28.7346 13.5888 28.7933 13.7396 28.9036C13.8714 29 14.5338 29 15.8584 29H28.1421C29.4667 29 30.1291 29 30.2609 28.9036C30.4117 28.7933 30.4452 28.7346 30.4634 28.5486C30.4793 28.3861 30.0769 27.7056 29.2722 26.3447C28.5661 25.1506 28.0002 23.4818 28.0002 21.2Z" stroke="white" stroke-width="1.5" stroke-linecap="round" stroke-linejoin="round"/>
</svg>
