<svg width="44" height="44" viewBox="0 0 44 44" fill="none" xmlns="http://www.w3.org/2000/svg">
<rect width="44" height="44" rx="22" fill="#2A2A2A"/>
<path d="M29 17V27M15 17V27M27 15L17 15M27 29H17M14.6 17H15.4C15.9601 17 16.2401 17 16.454 16.891C16.6422 16.7951 16.7951 16.6422 16.891 16.454C17 16.2401 17 15.9601 17 15.4V14.6C17 14.0399 17 13.7599 16.891 13.546C16.7951 13.3578 16.6422 13.2049 16.454 13.109C16.2401 13 15.9601 13 15.4 13H14.6C14.0399 13 13.7599 13 13.546 13.109C13.3578 13.2049 13.2049 13.3578 13.109 13.546C13 13.7599 13 14.0399 13 14.6V15.4C13 15.9601 13 16.2401 13.109 16.454C13.2049 16.6422 13.3578 16.7951 13.546 16.891C13.7599 17 14.0399 17 14.6 17ZM14.6 31H15.4C15.9601 31 16.2401 31 16.454 30.891C16.6422 30.7951 16.7951 30.6422 16.891 30.454C17 30.2401 17 29.9601 17 29.4V28.6C17 28.0399 17 27.7599 16.891 27.546C16.7951 27.3578 16.6422 27.2049 16.454 27.109C16.2401 27 15.9601 27 15.4 27H14.6C14.0399 27 13.7599 27 13.546 27.109C13.3578 27.2049 13.2049 27.3578 13.109 27.546C13 27.7599 13 28.0399 13 28.6V29.4C13 29.9601 13 30.2401 13.109 30.454C13.2049 30.6422 13.3578 30.7951 13.546 30.891C13.7599 31 14.0399 31 14.6 31ZM28.6 17H29.4C29.9601 17 30.2401 17 30.454 16.891C30.6422 16.7951 30.7951 16.6422 30.891 16.454C31 16.2401 31 15.9601 31 15.4V14.6C31 14.0399 31 13.7599 30.891 13.546C30.7951 13.3578 30.6422 13.2049 30.454 13.109C30.2401 13 29.9601 13 29.4 13H28.6C28.0399 13 27.7599 13 27.546 13.109C27.3578 13.2049 27.2049 13.3578 27.109 13.546C27 13.7599 27 14.0399 27 14.6V15.4C27 15.9601 27 16.2401 27.109 16.454C27.2049 16.6422 27.3578 16.7951 27.546 16.891C27.7599 17 28.0399 17 28.6 17ZM28.6 31H29.4C29.9601 31 30.2401 31 30.454 30.891C30.6422 30.7951 30.7951 30.6422 30.891 30.454C31 30.2401 31 29.9601 31 29.4V28.6C31 28.0399 31 27.7599 30.891 27.546C30.7951 27.3578 30.6422 27.2049 30.454 27.109C30.2401 27 29.9601 27 29.4 27H28.6C28.0399 27 27.7599 27 27.546 27.109C27.3578 27.2049 27.2049 27.3578 27.109 27.546C27 27.7599 27 28.0399 27 28.6V29.4C27 29.9601 27 30.2401 27.109 30.454C27.2049 30.6422 27.3578 30.7951 27.546 30.891C27.7599 31 28.0399 31 28.6 31Z" stroke="white" stroke-width="1.5" stroke-linecap="round" stroke-linejoin="round"/>
</svg>
